# Blender v2.81 (sub 16) OBJ File: ''
# www.blender.org
mtllib untitled.mtl
o Plane
v -0.570240 0.675495 -0.000000
v 0.570240 0.675495 -0.000000
v -0.570240 1.364333 0.000000
v 0.570240 1.364333 0.000000
v -0.570240 0.675495 0.004314
v 0.570240 0.675495 0.004314
v -0.570240 1.364333 0.004314
v 0.570240 1.364333 0.004314
v -0.578998 0.670206 0.004314
v 0.578998 0.670206 0.004314
v -0.578998 1.369623 0.004314
v 0.578998 1.369623 0.004314
v -0.578998 0.670206 -0.012827
v 0.578998 0.670206 -0.012827
v -0.578998 1.369623 -0.012827
v 0.578998 1.369623 -0.012827
v -0.351425 0.693521 -0.012827
v 0.351425 0.693521 -0.012827
v -0.351425 1.118036 -0.012827
v 0.351425 1.118036 -0.012827
v -0.137140 0.707401 -0.046408
v 0.137140 0.707401 -0.046408
v -0.137140 0.873063 -0.046408
v 0.137140 0.873063 -0.046408
v -0.047218 0.707401 -0.116864
v 0.047218 0.707401 -0.116864
v -0.047218 0.784571 -0.116864
v 0.047218 0.784571 -0.116864
v -0.047218 0.707401 -0.185494
v 0.047218 0.707401 -0.185494
v -0.047218 0.784571 -0.155618
v 0.047218 0.784571 -0.155618
v -0.047218 0.628064 -0.116864
v 0.047218 0.628064 -0.116864
v -0.047218 0.628064 -0.185494
v 0.047218 0.628064 -0.185494
v -0.115026 0.559864 -0.067585
v 0.115026 0.559864 -0.067585
v -0.115026 0.559864 -0.234773
v 0.115026 0.559864 -0.234773
v -0.124806 0.553901 -0.060478
v 0.124806 0.553901 -0.060478
v -0.124806 0.553901 -0.241880
v 0.124806 0.553901 -0.241880
v -0.124806 0.548789 -0.060478
v 0.124806 0.548789 -0.060478
v -0.124806 0.548789 -0.241880
v 0.124806 0.548789 -0.241880
v 0.574618 0.677176 0.004719
v 0.574424 0.677157 0.004719
v 0.574237 0.677100 0.004719
v 0.574065 0.677008 0.004719
v 0.573915 0.676885 0.004719
v 0.573791 0.676734 0.004719
v 0.573699 0.676562 0.004719
v 0.573642 0.676375 0.004719
v 0.573623 0.676181 0.004719
v 0.573642 0.675987 0.004719
v 0.573699 0.675801 0.004719
v 0.573791 0.675629 0.004719
v 0.573915 0.675478 0.004719
v 0.574065 0.675354 0.004719
v 0.574237 0.675262 0.004719
v 0.574424 0.675206 0.004719
v 0.574618 0.675187 0.004719
v 0.574812 0.675206 0.004719
v 0.574999 0.675262 0.004719
v 0.575170 0.675354 0.004719
v 0.575321 0.675478 0.004719
v 0.575445 0.675629 0.004719
v 0.575537 0.675801 0.004719
v 0.575593 0.675987 0.004719
v 0.575612 0.676181 0.004719
v 0.575593 0.676375 0.004719
v 0.575537 0.676562 0.004719
v 0.575445 0.676734 0.004719
v 0.575321 0.676885 0.004719
v 0.575170 0.677008 0.004719
v 0.574999 0.677100 0.004719
v 0.574812 0.677157 0.004719
v 0.574618 0.676181 0.004719
vt 0.000000 0.000000
vt 0.000000 1.000000
vt 1.000000 1.000000
vt 1.000000 0.000000
vt 0.603973 0.000078
vt 0.603973 0.999922
vt 0.000078 0.999922
vt 0.000078 0.000078
vt 0.000000 1.000000
vt 1.000000 1.000000
vt 1.000000 0.000000
vt 0.000000 0.000000
vt 0.596051 0.000315
vt 0.596013 0.999681
vt 0.596252 0.999894
vt 0.596252 0.000106
vt 0.000106 0.967689
vt 0.000315 0.027622
vt 0.000317 0.027868
vt 0.000143 0.967437
vt 0.589446 0.011023
vt 0.007341 0.034970
vt 0.007222 0.960335
vt 0.589502 0.988976
vt 0.384226 0.790064
vt 0.383053 0.208847
vt 0.030186 0.221035
vt 0.030876 0.774170
vt 0.053628 0.398713
vt 0.055441 0.596552
vt 0.184688 0.392954
vt 0.187085 0.604228
vt 0.115765 0.474217
vt 0.081340 0.480167
vt 0.083780 0.517432
vt 0.118588 0.520629
vt 0.111734 0.513103
vt 0.109847 0.482243
vt 0.092608 0.505650
vt 0.091675 0.491183
vt 0.088432 0.494560
vt 0.085566 0.492348
vt 0.596463 0.337977
vt 0.668854 0.337977
vt 0.668854 0.390586
vt 0.596463 0.390586
vt 0.086393 0.504976
vt 0.088952 0.502551
vt 0.693635 0.282228
vt 0.596463 0.225508
vt 0.658082 0.209810
vt 0.692112 0.221602
vt 0.745404 0.109884
vt 0.671616 0.121155
vt 0.626005 0.075087
vt 0.643877 0.139694
vt 0.650481 0.238076
vt 0.716428 0.279048
vt 0.673036 0.061803
vt 0.625542 0.112819
vt 0.678286 0.000106
vt 0.603772 0.086679
vt 0.639444 0.266144
vt 0.745404 0.337766
vt 0.000000 0.000000
vt 0.000000 0.000000
vt 0.000000 0.000000
vt 0.000000 0.000000
vt 0.000000 0.000000
vt 0.000000 0.000000
vt 0.000000 0.000000
vt 0.000000 0.000000
vt 0.000000 0.000000
vt 0.000000 0.000000
vt 0.000000 0.000000
vt 0.000000 0.000000
vt 0.000000 0.000000
vt 0.000000 0.000000
vt 0.000000 0.000000
vt 0.000000 0.000000
vt 0.000000 0.000000
vt 0.000000 0.000000
vt 0.000000 0.000000
vt 0.000000 0.000000
vt 0.000000 0.000000
vt 0.000000 0.000000
vt 0.000000 0.000000
vt 0.000000 0.000000
vt 0.000000 0.000000
vt 0.000000 0.000000
vt 0.000000 0.000000
vt 0.000000 0.000000
vt 0.000000 0.000000
vt 0.000000 0.000000
vt 0.000000 0.000000
vt 0.000000 0.000000
vt 0.000000 0.000000
vn 0.0000 0.0000 -1.0000
vn 0.0000 -0.0000 1.0000
vn 0.0000 1.0000 0.0000
vn 0.0000 -1.0000 0.0000
vn 1.0000 -0.0000 0.0000
vn -1.0000 -0.0000 0.0000
vn 0.0000 0.9242 0.3820
vn -0.1548 -0.0000 0.9879
vn 0.1548 -0.0000 0.9879
vn 0.0000 -0.1358 0.9907
vn -0.6168 -0.0000 0.7872
vn 0.6168 -0.0000 0.7872
vn 0.0000 -0.6229 0.7823
vn 0.0000 -0.3610 0.9326
vn -0.7091 -0.7051 0.0000
vn 0.0000 -0.5857 -0.8105
vn 0.7091 -0.7051 0.0000
vn 0.0000 -0.5857 0.8105
vn -0.5206 -0.8538 0.0000
vn 0.0000 -0.7660 -0.6428
vn 0.5206 -0.8538 0.0000
vn 0.0000 -0.7660 0.6428
g Plane_Plane_tela
usemtl tela
s off
f 1/1/1 3/2/1 4/3/1 2/4/1
f 5/5/2 6/6/2 8/7/2 7/8/2
f 4/3/3 3/2/3 7/9/3 8/10/3
f 1/1/4 2/4/4 6/11/4 5/12/4
f 2/4/5 4/3/5 8/10/5 6/11/5
f 3/2/6 1/1/6 5/12/6 7/9/6
g Plane_Plane_plastico
usemtl plastico
f 8/13/1 7/14/1 11/15/1 12/16/1
f 5/17/1 6/18/1 10/19/1 9/20/1
f 6/18/1 8/13/1 12/16/1 10/19/1
f 7/14/1 5/17/1 9/20/1 11/15/1
f 10/19/6 12/16/6 16/21/6 14/22/6
f 11/15/5 9/20/5 13/23/5 15/24/5
f 12/16/4 11/15/4 15/24/4 16/21/4
f 9/20/3 10/19/3 14/22/3 13/23/3
f 16/21/2 15/24/2 19/25/2 20/26/2
f 13/23/2 14/22/2 18/27/2 17/28/2
f 14/22/2 16/21/2 20/26/2 18/27/2
f 15/24/2 13/23/2 17/28/2 19/25/2
f 17/28/7 18/27/7 22/29/7 21/30/7
f 18/27/8 20/26/8 24/31/8 22/29/8
f 19/25/9 17/28/9 21/30/9 23/32/9
f 20/26/10 19/25/10 23/32/10 24/31/10
f 22/29/11 24/31/11 28/33/11 26/34/11
f 23/32/12 21/30/12 25/35/12 27/36/12
f 24/31/13 23/32/13 27/36/13 28/33/13
f 21/30/3 22/29/3 26/34/3 25/35/3
f 28/33/4 27/36/4 31/37/4 32/38/4
f 31/37/14 29/39/14 30/40/14 32/38/14
f 26/34/6 30/40/6 36/41/6 34/42/6
f 26/34/6 28/33/6 32/38/6 30/40/6
f 27/36/5 25/35/5 29/39/5 31/37/5
f 33/43/3 34/44/3 36/45/3 35/46/3
f 25/35/1 26/34/1 34/42/1 33/47/1
f 29/39/5 25/35/5 33/47/5 35/48/5
f 30/40/2 29/39/2 35/48/2 36/41/2
f 34/49/15 36/50/15 40/51/15 38/52/15
f 33/53/16 34/49/16 38/52/16 37/54/16
f 35/55/17 33/53/17 37/54/17 39/56/17
f 36/50/18 35/55/18 39/56/18 40/51/18
f 38/52/19 40/51/19 44/57/19 42/58/19
f 37/54/20 38/52/20 42/58/20 41/59/20
f 39/56/21 37/54/21 41/59/21 43/60/21
f 40/51/22 39/56/22 43/60/22 44/57/22
f 43/60/5 41/59/5 45/61/5 47/62/5
f 44/57/2 43/60/2 47/62/2 48/63/2
f 42/58/6 44/57/6 48/63/6 46/64/6
f 41/59/1 42/58/1 46/64/1 45/61/1
f 46/64/3 48/63/3 47/62/3 45/61/3
g Plane_Plane_botao
usemtl botao
f 61/65/1 60/66/1 81/67/1
f 75/68/1 74/69/1 81/67/1
f 62/70/1 61/65/1 81/67/1
f 76/71/1 75/68/1 81/67/1
f 63/72/1 62/70/1 81/67/1
f 50/73/1 49/74/1 81/67/1
f 77/75/1 76/71/1 81/67/1
f 64/76/1 63/72/1 81/67/1
f 51/77/1 50/73/1 81/67/1
f 78/78/1 77/75/1 81/67/1
f 65/79/1 64/76/1 81/67/1
f 52/80/1 51/77/1 81/67/1
f 79/81/1 78/78/1 81/67/1
f 66/82/1 65/79/1 81/67/1
f 53/83/1 52/80/1 81/67/1
f 80/84/1 79/81/1 81/67/1
f 67/85/1 66/82/1 81/67/1
f 54/86/1 53/83/1 81/67/1
f 49/74/1 80/84/1 81/67/1
f 68/87/1 67/85/1 81/67/1
f 55/88/1 54/86/1 81/67/1
f 69/89/1 68/87/1 81/67/1
f 56/90/1 55/88/1 81/67/1
f 70/91/1 69/89/1 81/67/1
f 57/92/1 56/90/1 81/67/1
f 71/93/1 70/91/1 81/67/1
f 58/94/1 57/92/1 81/67/1
f 72/95/1 71/93/1 81/67/1
f 59/96/1 58/94/1 81/67/1
f 73/97/1 72/95/1 81/67/1
f 60/66/1 59/96/1 81/67/1
f 74/69/1 73/97/1 81/67/1
